<?xml version="1.0" encoding="utf-8"?>
<!-- Generator: Adobe Illustrator 18.1.1, SVG Export Plug-In . SVG Version: 6.00 Build 0)  -->
<svg version="1.1" id="Layer_1" xmlns="http://www.w3.org/2000/svg" xmlns:xlink="http://www.w3.org/1999/xlink" x="0px" y="0px"
	 viewBox="16.3 229.7 809.3 135.7" enable-background="new 16.3 229.7 809.3 135.7" xml:space="preserve">
<g>
	<path d="M746.2,290.9v-17.6h11.1c5.9,0,13.9,0.5,13.9,8.1c0,8.2-4.1,9.5-11.1,9.5H746.2z M746.2,303.4h7.6l16.8,30.7h18.5l-18.7-32
		c9.6-0.8,17.6-5.5,17.6-19c0-16.8-11.1-22.1-30.1-22.1h-27.4v73.1h15.7V303.4z M825.6,297.6c0-42.9-32.1-67.9-68-67.9
		c-36.2,0-68.3,25-68.3,67.9c0,43,32.1,67.9,68.3,67.9C793.5,365.6,825.6,340.6,825.6,297.6z M806.1,297.6
		c0,31.3-22.3,52.4-48.4,52.4v-0.2c-27.1,0.2-48.6-20.9-48.6-52.2c0-31.2,21.7-51.9,48.6-51.9C783.8,245.7,806.1,266.4,806.1,297.6z
		"/>
	<path d="M62,272.1h0.5H62 M62,272.1l24.2,75h22L74,250.4H50.8l-34.5,96.8h21.4L62,272.1z"/>
	<path d="M172.4,282.5c-1.6-5.9-4.7-16.9-21.2-16.9c-10,0-24,6.6-24,34c0,17.4,6.8,32.9,24,32.9c11.1,0,18.8-6.3,21.2-18.2h20.2
		c-4.1,21-17.7,35.6-42.1,35.6c-25.6,0-44.1-17.2-44.1-50.6c0-33.9,19.5-51.1,44.3-51.1c29.1,0,40.8,19.9,41.9,34.3H172.4z"/>
	<path d="M223.2,293.3v-25.9h25.2c11.9,0,14.2,7.6,14.2,12.8c0,9.5-5.2,13.1-15.8,13.1H223.2z M203.4,347.4h19.8v-37.8h20.9
		c15,0,15.8,5.1,15.8,18.4c0,10,0.8,14.9,2.1,19.5h22.3v-2.5c-4.3-1.6-4.3-5.1-4.3-19.1c0-18-4.3-20.9-12.3-24.5
		c9.6-3.3,15-12.3,15-22.9c0-8.4-4.6-27.4-30.4-27.4h-48.9L203.4,347.4L203.4,347.4z"/>
	<path d="M312.4,299c0-26.9,15.3-33.9,26.3-33.9s26.3,6.8,26.3,33.9c0,27.2-15.3,33.9-26.3,33.9S312.4,326,312.4,299z M292.3,299
		c0,45.4,33.7,50.9,46.5,50.9c12.7,0,46.3-5.5,46.3-50.9c0-45.2-33.5-50.8-46.3-50.8C326,248.2,292.3,253.7,292.3,299z"/>
	<path d="M417.9,318h0.2l38.4-67.2h21.2v96.7h-18.8v-69h-0.3l-39.4,69h-20.1v-96.7h19V318H417.9z"/>
	<path d="M541.2,347.4h-20.1v-36.5l-33.4-60.1h23.9l19.9,41.9l19.3-41.9h22.8l-32.4,60.6V347.4z"/>
	<path d="M677.1,347.4h-18.8v-80.7h-0.3l-18.2,80.7h-19.6l-17.6-80.7h-0.3v80.7h-18.8v-96.7h29.4l17.6,76.2h0.2l17.4-76.2h29.1
		V347.4z"/>
</g>
</svg>
