<?xml version="1.0" encoding="utf-8"?>
<!-- Generator: Adobe Illustrator 16.0.0, SVG Export Plug-In . SVG Version: 6.00 Build 0)  -->
<!DOCTYPE svg PUBLIC "-//W3C//DTD SVG 1.1//EN" "http://www.w3.org/Graphics/SVG/1.1/DTD/svg11.dtd">
<svg version="1.1" xmlns="http://www.w3.org/2000/svg" xmlns:xlink="http://www.w3.org/1999/xlink" x="0px" y="0px"
	 width="195.333px" height="50px" viewBox="0 0 195.333 50" enable-background="new 0 0 195.333 50" xml:space="preserve">
<g id="Ligne_1" display="none">
	<rect x="-864.333" y="-513.085" display="inline" width="1920" height="1080.085"/>
	<g display="inline">
		<g>
			<path fill="#F46A4B" d="M5.333,24.85c-1.101,0-1.789-0.653-2.339-1.549L2.41,23.473v7.706l2.443,1.445l2.408-1.65l0.378,0.516
				c-1.618,1.102-3.131,2.201-4.816,3.303c-0.929-0.896-1.893-1.651-2.958-2.374l-0.999,0.791l-0.378-0.481l1.687-1.41v-7.465
				l-0.758-0.276l0.07-0.378c2.374-0.069,3.922-0.447,5.435-2.408c0.619,1.341,1.376,1.995,2.89,2.098l0.104,0.413
				C7.295,24.092,6.4,24.85,5.333,24.85z"/>
			<path fill="#F46A4B" d="M12.871,34.792c-0.722-0.756-1.48-1.376-2.306-2.029c-0.481,0.412-0.997,0.722-1.514,1.065l-0.274-0.412
				c0.859-0.551,1.547-1.205,2.269-1.893v-8.567c-0.172,0-0.31-0.034-0.481-0.034c-0.378,0-0.756,0.069-1.135,0.137l-0.412,0.551
				H8.501l0.792-2.099c0.275,0.035,0.551,0.035,0.826,0.035c0.31,0,0.618-0.035,0.928-0.035V16.49l2.236-1.721v6.778
				c0.62,0,1.274,0,1.893-0.069l0.413-0.551l0.413,0.069l-0.55,1.995c-0.379-0.035-0.757-0.069-1.135-0.069
				c-0.344,0-0.688,0-1.033,0.034v8.705c0.345,0.345,0.724,0.654,1.102,0.93l1.41-0.964l0.241,0.412
				C14.866,32.899,13.868,33.76,12.871,34.792z"/>
		</g>
		<g>
			<path fill="#F46A4B" d="M45.958,21.582v12.247h-2.274v-5.455h-7.066v5.455h-2.275V21.582h2.275v4.914h7.066v-4.914H45.958z"/>
		</g>
		<g>
			<path fill="#F46A4B" d="M51.191,23.423v3.083h7.57v1.731h-7.57v3.748h8.364v1.842H48.917V21.582h10.643v1.842H51.191z"/>
		</g>
		<g>
			<path fill="#F46A4B" d="M71.414,31.949v1.879h-9.479V21.582h2.275v10.368H71.414z"/>
			<path fill="#F46A4B" d="M82.873,31.949v1.879h-9.479V21.582h2.274v10.368H82.873z"/>
		</g>
		<g>
			<path fill="#F46A4B" d="M83.866,27.606v-0.029c0-3.846,2.441-6.122,6.581-6.125c4.151,0,6.602,2.276,6.602,6.125v0.029
				c0,3.99-2.451,6.354-6.602,6.354C86.308,33.961,83.866,31.597,83.866,27.606z M94.657,27.606v-0.029
				c0-2.729-1.55-4.303-4.209-4.303c-2.645,0.002-4.187,1.577-4.187,4.303v0.029c0,2.848,1.542,4.522,4.187,4.522
				C93.107,32.129,94.657,30.454,94.657,27.606z"/>
		</g>
		<g>
			<path fill="#F46A4B" d="M116.974,29.291v0.018c0,3.587-1.642,5.299-3.885,5.299c-1.53,0-2.387-0.742-2.538-1.949
				c-0.739,0.827-1.995,1.305-3.729,1.305c-2.374,0-3.792-1.015-3.792-2.637v-0.023c0-1.557,1.077-2.418,3.506-2.564l3.764-0.212
				v-0.465c0-1.133-0.915-1.598-2.487-1.598c-1.648,0-2.575,0.543-2.575,1.426v0.068h-1.983v-0.064c0-1.912,1.566-2.949,4.615-2.949
				c2.792,0,4.521,0.944,4.521,3.105v4.121c0,0.663,0.287,0.978,0.812,0.978c0.971,0,1.871-1.039,1.871-3.763v-0.018
				c0-3.86-2.504-6.351-7.112-6.351c-4.47,0-7.279,2.313-7.279,6.343v0.019c0,4.056,2.423,6.383,6.695,6.383
				c1.162,0,2.305-0.228,3.294-0.611l0.549,1.431c-1.213,0.464-2.61,0.752-4.018,0.752c-5.231,0-8.43-3.064-8.43-7.954V29.36
				c0-4.933,3.523-7.92,9.188-7.92S116.974,24.578,116.974,29.291z M110.299,30.278v-0.472l-3.269,0.164
				c-1.444,0.078-1.862,0.54-1.862,1.179v0.021c0,0.775,0.777,1.275,2.127,1.275C109.198,32.446,110.299,31.62,110.299,30.278z"/>
			<path fill="#F46A4B" d="M136.588,21.582l-3.893,12.247h-2.549l-2.722-9.326l-2.75,9.326h-2.55l-3.892-12.247h2.28l3.01,9.867
				l2.897-9.867h1.979l2.893,9.844l3.015-9.844H136.588z"/>
		</g>
		<g>
			<path fill="#F46A4B" d="M145.262,31.465h-6.449l-0.995,2.363h-2.347l5.227-12.29h2.678l5.228,12.29h-2.347L145.262,31.465z
				 M144.552,29.776l-2.515-5.982l-2.516,5.982H144.552z"/>
			<path fill="#F46A4B" d="M155.532,33.96c-4.029,0-5.951-1.59-5.951-3.876v-0.067h2.138v0.03c0,1.432,1.397,2.181,3.812,2.181
				c2.195,0,3.536-0.639,3.536-1.805v-0.021c0-3.239-9.292-0.217-9.292-5.462v-0.018c0-2.227,2.237-3.476,5.694-3.476
				c3.684,0,5.791,1.35,5.791,3.567v0.079h-2.138v-0.03c0-1.247-1.431-1.885-3.592-1.885c-2.206,0-3.456,0.638-3.456,1.749v0.017
				c0,3.282,9.309,0.281,9.309,5.424v0.019C161.383,32.597,159.118,33.96,155.532,33.96z"/>
			<path fill="#F46A4B" d="M173.87,23.451h-4.475v10.377h-2.273V23.451h-4.474v-1.87h11.222V23.451z"/>
			<path fill="#F46A4B" d="M178.227,23.423v3.083h7.568v1.731h-7.568v3.748h8.363v1.842h-10.638V21.582h10.641v1.842H178.227z"/>
			<path fill="#F46A4B" d="M201.225,27.531v0.017c0.004,4.216-2.824,6.28-7.193,6.28h-5.063V21.582h5.076
				C198.403,21.582,201.225,23.457,201.225,27.531z M198.832,27.531c0-2.887-1.781-4.092-4.787-4.092h-2.801v8.533h2.788
				c3.015,0,4.8-1.395,4.8-4.424V27.531z"/>
		</g>
	</g>
</g>
<g id="Baseline_seule" display="none">
	<g display="inline">
	</g>
	<g display="inline">
		<path fill="#231F20" d="M66.003,56.51c-4.441,0-8.055-3.613-8.055-8.055c0-4.442,3.614-8.056,8.055-8.056s8.055,3.613,8.055,8.056
			C74.058,52.896,70.444,56.51,66.003,56.51z M66.003,41.149c-4.028,0-7.305,3.277-7.305,7.306c0,4.027,3.277,7.305,7.305,7.305
			s7.305-3.277,7.305-7.305C73.308,44.427,70.031,41.149,66.003,41.149z"/>
		<g>
			<path d="M69.211,51.949H67.6l-1.592-4.786l-1.565,4.786h-1.639l-1.732-6.574h1.602l0.987,4.489l1.508-4.489h1.713l1.481,4.489
				l0.997-4.489h1.574L69.211,51.949z"/>
		</g>
	</g>
</g>
<g id="Monogramme_vertical__x2B__Baseline" display="none">
	<g display="inline">
		<g>
			<path d="M229.497,52.123v-0.021c0-6.399-12.021-2.401-12.021-6.823v-0.021c0-1.53,1.766-2.42,4.894-2.42
				c3.081,0,5.09,0.868,5.09,2.535v0.022h1.929v-0.102c0-2.602-2.569-4.231-7.057-4.231c-4.301,0-6.956,1.574-6.956,4.176v0.021
				c0,6.533,12.02,2.432,12.02,6.842v0.021c0,1.612-1.909,2.493-5.022,2.493c-3.371,0-5.326-1.016-5.326-2.896v-0.021h-1.93v0.081
				c0,2.726,2.404,4.611,7.262,4.611C226.904,56.391,229.497,54.621,229.497,52.123 M212.002,41.216h-2.037v15.022h2.037V41.216z
				 M195.004,48.814v-5.776h5.085c2.562,0,4.468,0.791,4.468,2.744v0.023c0,2.112-1.905,3.009-4.468,3.009H195.004z M206.9,56.238
				l-3.676-6.059c2.203-0.701,3.457-2.228,3.457-4.374v-0.023c0-2.894-2.479-4.566-6.592-4.566h-7.123v15.022h2.038v-5.623h5.085
				c0.369,0,0.728-0.015,1.069-0.044l3.441,5.667H206.9z M179.03,51.305l3.656-8.179l3.655,8.179H179.03z M188.544,56.238h2.102
				l-6.761-15.087h-2.4l-6.761,15.087h2.1l1.389-3.113h8.945L188.544,56.238z M173.156,46.069c0,2.283-1.91,3.26-4.476,3.26h-4.8
				v-6.293h4.8c2.565,0,4.476,0.888,4.476,3.011V46.069z M168.68,41.216h-6.837v15.022h2.037V51.13h4.8
				c4.118,0,6.598-1.87,6.598-5.061v-0.022C175.278,42.979,172.798,41.216,168.68,41.216"/>
			<path d="M16.507,45.432V45.41c0-2.862-2.826-4.385-7.047-4.385c-3.763,0-6.896,1.471-7.053,4.797l-0.005,0.085h2.616l0.006-0.085
				c0.115-1.767,1.956-2.61,4.297-2.61c2.767,0,4.292,0.771,4.292,2.268V45.5c0,4.338-11.345,2.245-11.345,10.351v0.37h14.187
				v-2.203H5.409C7.568,49.679,16.507,51.191,16.507,45.432z M-2.622,41.197c-0.881,1.354-2.058,1.974-4.578,1.974v2.123
				c1.753,0,3.101-0.255,4.135-0.711V56.22h2.789V41.197H-2.622z M-16.774,54.157c-3.069,0-4.668-2.021-4.668-5.562v-0.021
				c0-3.373,1.599-5.304,4.668-5.307c3.088,0,4.697,1.932,4.697,5.307v0.021C-12.077,52.136-13.686,54.157-16.774,54.157
				 M-16.774,56.366c4.953,0,7.632-2.843,7.632-7.771v-0.021c0-4.769-2.679-7.532-7.632-7.532c-4.935,0.003-7.602,2.767-7.602,7.532
				v0.021C-24.376,53.523-21.708,56.366-16.774,56.366 M-34.123,56.218h2.96v-2.744h-2.96V56.218z M-36.7,51.999v-0.022
				c0-6.317-11.4-2.644-11.4-6.665v-0.021c0-1.361,1.532-2.144,4.234-2.144c2.648,0,4.398,0.783,4.398,2.312v0.037h2.617v-0.098
				c0-2.721-2.578-4.374-7.092-4.374c-4.236,0-6.985,1.53-6.985,4.262v0.021c0,6.442,11.396,2.726,11.396,6.708v0.023
				c0,1.44-1.642,2.229-4.334,2.229c-2.967,0-4.683-0.925-4.683-2.689V51.54h-2.616v0.083c0,2.819,2.352,4.768,7.295,4.768
				C-39.469,56.391-36.7,54.72-36.7,51.999z"/>
			<path fill="#231F20" d="M141.358,56.511c-4.441,0-8.055-3.613-8.055-8.055c0-4.442,3.613-8.056,8.055-8.056
				s8.055,3.613,8.055,8.056C149.413,52.897,145.799,56.511,141.358,56.511z M141.358,41.15c-4.028,0-7.305,3.277-7.305,7.306
				c0,4.027,3.276,7.305,7.305,7.305s7.305-3.277,7.305-7.305C148.663,44.428,145.386,41.15,141.358,41.15z"/>
			<g>
				<path d="M144.567,51.95h-1.611l-1.593-4.786l-1.565,4.786h-1.639l-1.732-6.574h1.603l0.987,4.489l1.508-4.489h1.714l1.481,4.489
					l0.996-4.489h1.574L144.567,51.95z"/>
			</g>
			<path d="M133.987,4.659c-2.632-0.493-5.427-1.15-8.06-1.15c-2.795,0-5.593,0.493-8.388,0.985v27.304
				c5.264-1.972,10.856-3.947,16.447-4.604V4.659z M133.987-22.974c-2.632,0.659-5.263,1.152-8.06,1.152
				c-2.795,0-5.593-0.494-8.388-1.315v24.67c2.795-0.494,5.593-0.985,8.388-0.985c2.797,0,5.428,0.492,8.06,1.15V-22.974z
				 M133.987-50.111l-8.389-6.744l-8.059,6.908v23.849c2.795,0.823,5.593,1.318,8.388,1.318c2.633,0,5.428-0.659,8.06-1.152V-50.111
				z M114.579-47.151l-7.73,6.908v67.765l7.73,3.618V-47.151z M95.499,4.659c-2.631-0.493-5.426-1.15-8.059-1.15
				c-2.796,0-5.591,0.493-8.224,1.15v24.343c2.139,1.316,4.113,2.467,6.086,4.112l10.196-5.757V4.659z M95.499-22.974
				c-2.631,0.659-5.264,1.152-8.059,1.152c-2.796,0-5.591-0.494-8.224-1.152V1.863c2.632-0.659,5.427-1.314,8.224-1.314
				c2.795,0,5.427,0.492,8.059,1.15V-22.974z M95.499-49.289c-2.795-3.29-5.59-6.086-8.881-8.719l-7.401,6.745v25.329
				c2.632,0.657,5.427,1.152,8.224,1.152c2.633,0,5.427-0.659,8.059-1.152V-49.289z M76.256-48.629l-7.732,6.742v67.928
				c2.633,0.494,5.266,1.316,7.732,2.138V-48.629z M146.157-51.262v77.633l3.291,3.126l-0.822,1.972
				c-2.959-0.821-6.25-1.48-9.376-1.48c-13.979,0-22.369,6.578-32.564,15.134c-5.264-4.278-13.65-9.541-20.561-9.541
				c-4.604,0-9.704,6.744-12.335,9.869c-6.415-4.606-11.842-7.896-20.067-7.896c-9.868,0-20.395,6.085-20.395,16.94
				c0,8.389,8.555,14.392,15.464,17.682v0.988l-0.987,1.48c-9.048-3.454-18.095-9.786-18.095-20.312
				c0-15.791,12.006-25,26.644-27.469V-9.321C48.295-8.992,45.005-8.005,45.005,0.71L41.88,1.204
				c-0.823-2.795-1.152-5.919-1.152-8.88c0-10.363,6.58-12.172,15.625-12.172v-22.698c0-6.578-1.479-12.663-9.045-12.663
				c-6.744,0-10.692,5.921-12.335,11.842l-3.947-1.314c1.314-11.185,7.237-25.66,20.559-25.66c13.158,0,16.939,13.817,16.939,24.508
				l7.732-6.744V-69.52h2.96v14.145l17.105-14.968l10.526,11.514v14.476l7.73-6.745V-69.52h2.961v15.461l18.422-16.284
				c4.112,3.619,8.881,8.883,13.814,11.35l5.592-3.947l1.81,4.111C153.723-55.704,150.27-53.401,146.157-51.262"/>
		</g>
	</g>
</g>
<g id="Monogramme_Horizontal" display="none">
	<g>
		<path display="inline" fill="#FF0000" d="M228.248,19.721c-0.116,0.128-0.282,0.235-0.338,0.388
			c-3.67,9.917-11.255,12.578-20.112,11.732c-8.361-0.804-16.584-2.486-24.627-4.985c-1.163-0.361-1.629-0.865-1.617-2.146
			c0.065-6.918,0.059-13.836,0.004-20.754c-0.008-1.195,0.412-1.827,1.451-2.404c5.913-3.279,12.307-3.974,18.802-3.086
			c3.496,0.478,6.859,1.96,10.429,3.034c-3.468,8.822-9.276,15.082-16.393,20.562c1.35,0.541,1.89,2.206,3.431,0.854
			c3.88-3.415,8.03-6.537,11.736-10.122c13.039-12.626,20.012-27.566,16.947-46.151c-1.583-9.599-5.378-18.085-12.939-24.463
			c-17.247-14.546-42.582-16.176-61.636-4.093c-4.719,2.994-4.754,3.038-9.184-0.602c-2.934-2.41-5.738-4.975-8.691-7.546
			c-3.864,3.393-7.705,6.771-11.644,10.234l-0.097,0.022l-0.152,0.133l-6.218,5.44v-15.132h-3.334v16.713v1.332l-0.876,0.768
			l-0.638,0.555l-0.98,0.861l-4.489,3.923c-0.187,0.059-0.373,0.109-0.562,0.151v-5.099v-5.928c-0.09-0.517-0.211-1.018-0.361-1.509
			c-0.795-2.662-2.673-4.717-4.938-7.081c-1.698-1.771-3.349-3.517-5.099-5.397c-3.01,2.615-5.963,5.18-8.893,7.721l-0.151,0.133
			l-7.729,6.759v-0.295v-13.606h-3.336v15.845v0.974l-0.982,0.861l-6.409,5.604c-0.07-0.742-0.07-1.238-0.171-1.716
			c-0.896-4.21-1.3-8.613-2.82-12.59c-3.745-9.794-15.156-12.916-23.532-6.595c-6.93,5.229-9.265,12.935-10.558,21.067
			c-0.236,1.478,1.094,1.679,2.019,1.818C34.183-44,35.2-44.364,35.53-44.86c1.067-1.607,1.808-3.427,2.839-5.061
			c1.831-2.901,4.287-5.044,7.873-5.35c6.068-0.521,9.932,3.089,10.053,9.525c0.128,6.979,0.09,13.964,0.108,20.943
			c0.012,4.702,0.005,4.702-4.733,5.134C44.767-19.04,41.628-16.13,41.05-9.216c-0.225,2.653,0.361,5.381,0.612,8.074
			c0.102,1.063,0.529,1.827,1.824,1.788c1.35-0.043,1.579-0.988,1.645-1.975c0.477-6.887,4.303-7.884,8.761-8.132
			c2.479-0.137,2.525-0.093,2.525,2.374c0.008,10.083,0.008,20.168,0.021,30.255c0.004,3.302,0.011,3.287-3.221,4.079
			c-6.596,1.608-12.536,4.454-17.087,9.632c-1.505,1.719-2.634,3.769-3.935,5.67c2.752-0.668,5.025-1.751,7.392-2.558
			c6.077-2.076,12.203-3.768,18.763-2.595c5.099,0.908,9.51,3.213,13.596,6.227c1.435,1.061,2.292,0.85,3.359-0.493
			c1.323-1.664,2.872-3.146,4.33-4.701c2.821-3.016,6.243-4.028,10.22-2.923c1.086,0.303,2.193,0.613,3.244,1.029
			c2.068,1.482,3.545,2.192,4.597,2.383c2.223,1.252,4.419,2.561,6.558,3.944c1.684,1.088,3.007,1.192,4.473-0.201
			c0.843-0.796,1.75-1.549,2.725-2.176c4.051-2.627,7.948-5.572,12.252-7.707c5.432-2.688,10.612-0.888,14.003,4.124
			c0.423,0.622,0.823,1.254,1.33,2.031c3.186-3.012,6.725-4.809,10.927-4.738c2.502,0.039,5.04,0.283,7.487,0.787
			c10.239,2.099,20.433,4.408,30.675,6.486c5.521,1.123,11.14,1.654,16.77,0.913c6.191-0.815,11.38-3.915,16.48-7.31
			c3.559-2.371,5.638-5.649,6.814-9.545c0.546-1.808,0.438-3.818,0.628-5.734C228.627,19.771,228.438,19.748,228.248,19.721
			 M212.883-0.087c-10.352-5.214-20.699-5.008-31.167,0.032v-27.765c5.218,2.25,10.432,3.852,16.016,3.824
			c5.61-0.03,10.779-1.687,15.95-4.364C215.957-18.975,215.925-9.682,212.883-0.087 M181.666-58.273
			c0-0.055,0.062-0.109,0.097-0.159c12.043-0.14,27.982,14.161,31.252,28.133c-10.005,5.316-20.101,5.867-30.297,0.528
			c-0.509-0.268-1.079-1.028-1.083-1.561C181.591-40.313,181.634-49.291,181.666-58.273 M86.064,32.184
			c-1.699-0.913-3.336-1.696-4.853-2.36c-0.645-0.284-1.27-0.546-1.863-0.788v-2.021V4.79c0.311-0.477,0.834-0.772,1.587-0.936
			c4.241-0.916,8.451-0.845,12.684,0.102c1.25,0.283,1.773,0.971,1.78,2.138c0.039,6.468,0.101,12.933,0.024,19.396
			c-0.007,0.736-0.66,1.737-1.312,2.149c-2.452,1.547-5.021,2.913-7.562,4.318C86.398,32.039,86.236,32.12,86.064,32.184
			 M79.418,1.565V-23.06c5.226,1.207,10.395,1.323,15.713-0.062V1.388C89.883,0.068,84.722,0.08,79.418,1.565 M84.361-56.069
			l1.494-1.315c0.656-0.369,1.292-0.271,2.005,0.465c2.119,2.17,4.361,4.229,6.402,6.468c0.633,0.69,1.086,1.819,1.102,2.756
			c0.116,6.584,0.079,13.171,0.14,19.761c0.012,1.431-0.632,2.129-1.982,2.37c-4.035,0.713-8.058,0.885-12.122,0.113
			c-1.016-0.195-1.683-0.557-2.052-1.185v-23.885v-1.145L84.361-56.069z M69.653,25.808c-0.547-0.197-1.086-1.213-1.125-1.885
			c-0.136-2.321-0.051-4.652-0.051-6.977c-0.003-18.546,0.02-37.092-0.054-55.635c-0.008-2.339,0.582-4.064,2.557-5.449
			c1.722-1.208,3.211-2.748,5.032-4.348v76.098c-0.978-0.268-1.949-0.509-2.903-0.76h-0.004c-0.469-0.137-0.764-0.211-0.857-0.233
			c-0.02-0.005-0.032-0.008-0.032-0.008C71.348,26.37,70.491,26.114,69.653,25.808 M133.524-48.107
			c0.205,3.278,0.073,6.584,0.073,9.878h0.012c0,3.422-0.054,6.848,0.026,10.271c0.036,1.424-0.457,2.16-1.861,2.409
			c-4.108,0.729-8.198,0.88-12.314,0.026c-1.013-0.209-1.692-0.625-2.06-1.304v-22.17c0.156-0.438,0.382-0.877,0.642-1.283
			l7.051-6.122c0.531-0.082,1.065,0.129,1.681,0.675c1.688,1.498,3.615,2.742,5.195,4.337
			C132.783-50.568,133.454-49.249,133.524-48.107 M117.4-22.536h15.988V1.282c-1.75-0.274-3.396-0.752-5.04-0.744
			c-3.15,0.012-6.305,0.225-9.443,0.521c-0.723,0.07-1.227,0.011-1.505-0.319V-22.536z M107.409,27.313
			c-0.594-0.364-0.842-1.677-0.846-2.557c-0.051-7.046-0.047-14.093-0.043-21.138v-7.411c0-7.294,0.016-14.589,0-21.879v-12.551
			c0.162-1.649,0.779-2.957,2.246-4.074c0.396-0.301,0.78-0.615,1.163-0.939l0,0l0.025-0.021c0.28-0.239,0.562-0.482,0.842-0.73
			l3.27-2.841v77.47C111.696,29.497,109.453,28.571,107.409,27.313 M133.546,24.705c-0.007,0.746-0.504,1.979-1.04,2.15
			c-4.868,1.552-9.796,2.925-15.106,4.465V4.628c0.36-0.653,1.097-0.866,2.575-0.932c3.713-0.167,7.441-0.038,11.158,0.098
			c1.712,0.061,2.55,0.954,2.507,2.905C133.516,12.697,133.632,18.704,133.546,24.705 M178.46,25.386
			c-10.938-2.267-21.65-5.774-32.785-0.753v-2.425c-0.007-23.14,0.008-46.28-0.058-69.42c-0.008-2.091,0.633-3.534,2.343-4.73
			c5.965-4.166,12.617-6.479,19.784-7.177c3.496-0.342,7.054-0.062,10.716-0.062V25.386z"/>
		<path display="inline" fill="#FF0000" d="M159.573-33.218c-0.044,2.519-0.029,5.039-0.036,7.56
			c-0.005,1.597-0.001,3.193-0.001,4.932c-1.3,0.099-2.386,0.167-3.469,0.262c-5.123,0.447-8.032,2.885-8.665,7.968
			c-0.4,3.212-0.075,6.517-0.075,9.865h2.891c1.14-6.043,4.19-8.436,9.318-7.256c0,5.897,0.015,11.832-0.006,17.765
			c-0.014,4.189,0.346,8.509-3.668,11.596c3.072,0.272,5.906,0.171,8.467-1.648c4.896-3.477,6.936-8.338,6.945-14.173
			c0.027-14.474-0.056-28.948,0.109-43.42c0.025-2.207,0.813-4.569,1.85-6.545c0.692-1.317,0.981-2.078-0.262-3.233
			c-1.709,0.83-3.522,1.627-5.259,2.569C162.266-44.024,159.681-39.338,159.573-33.218"/>
	</g>
	<g display="inline">
		<path fill="#231F20" d="M-4.116,42.726c-4.441,0-8.055-3.613-8.055-8.055c0-4.442,3.613-8.056,8.055-8.056
			s8.055,3.613,8.055,8.056C3.939,39.112,0.326,42.726-4.116,42.726z M-4.116,27.365c-4.028,0-7.305,3.277-7.305,7.306
			c0,4.027,3.276,7.305,7.305,7.305s7.305-3.277,7.305-7.305C3.189,30.643-0.087,27.365-4.116,27.365z"/>
		<g>
			<path d="M-0.907,38.165h-1.611l-1.593-4.786l-1.565,4.786h-1.639l-1.732-6.574h1.603l0.987,4.489l1.508-4.489h1.714l1.481,4.489
				l0.996-4.489h1.574L-0.907,38.165z"/>
		</g>
		<g>
			<path fill="#1D1D1B" d="M149.814-12.449l-1.131-2.103c-12.284,4.688-13.9,10.345-13.9,19.396c0,0,0,6.142,0,9.699
				c-8.404,0-12.445,2.746-12.445,11.475c0,2.263,0.322,4.687,0.646,6.951h2.584c1.133-6.466,2.75-7.597,9.215-7.758V45.09
				c0,3.717-0.162,7.436-3.718,9.535l1.13,2.426c8.89-3.07,14.549-8.082,14.549-17.779V0.965
				C146.744-6.146,146.58-9.863,149.814-12.449z"/>
			<path fill="#1D1D1B" d="M203.006,63.037c-4.369,5.65-11.912,9.121-18.931,9.121c-9.125,0-17.407-1.941-25.662-4.65
				c-0.005,0-0.008-0.002-0.012-0.002c-0.446-0.137-0.96-0.293-1.501-0.459v-24.57c3.028-1.666,15.786-7.65,28.474,1.506
				c-1.851,7.619-5.279,14.4-10.385,20.434c0.461,0.297,0.903,0.582,2.195,1.4c4.916-4.916,14.113-14.268,18.404-23.137
				c3.355-7.586,5.235-15.943,5.235-25.198c0-28.726-19.958-50.178-49.058-50.178c-12.658,0-24.158,4.847-33.018,12.959
				c-3.609-2.689-7.058-6.321-10.137-9.032L90.191-12.485v-15.461H87.23v18.421L79.5-2.779v-14.476L68.973-28.769L51.868-13.801
				v-14.145h-2.96v16.941l-7.732,6.744c0-10.691-3.781-24.508-16.939-24.508c-13.322,0-19.244,14.476-20.559,25.66l3.947,1.314
				c1.643-5.921,5.591-11.842,12.335-11.842c7.566,0,9.045,6.085,9.045,12.663v22.698c-9.045,0-15.625,1.81-15.625,12.173
				c0,2.96,0.33,6.084,1.152,8.879l3.125-0.493c0-8.716,3.29-9.702,11.348-10.032v36.186c-10.532,1.777-19.7,7.043-24.016,15.738
				c5.116-4.336,12.179-7.018,19.98-7.018c8.967,0,16.953,3.545,22.133,9.07c2.764-3.344,7.427-9.074,11.674-9.074
				c6.911,0,15.297,5.264,20.561,9.541c4.253-3.568,8.195-6.783,12.357-9.33c7.47-4.182,16.505-6.355,21.606,2.873
				c3.865-3.863,7.376-5.27,12.822-5.27c4.392,0,14.223,2.809,18.616,4.037c8.605,2.285,17.034,4.92,25.991,4.92
				c0.361,0,0.729-0.012,1.096-0.023c9.371-0.328,26.098-4.82,30.87-17.77c0.509-1.381,0.479-1.031,0.808-2.578
				C203.339,63.342,203.256,63.24,203.006,63.037z M48.908,69.752c-2.467-0.82-5.1-1.644-7.732-2.137V-0.313l7.732-6.742V69.752z
				 M68.15,68.932l-10.196,5.756c-1.974-1.645-3.947-2.795-6.086-4.111V46.232c2.632-0.656,5.427-1.15,8.224-1.15
				c2.633,0,5.427,0.658,8.059,1.15V68.932z M68.15,43.272c-2.631-0.659-5.264-1.15-8.059-1.15c-2.796,0-5.591,0.655-8.224,1.314
				V18.6c2.632,0.659,5.427,1.152,8.224,1.152c2.795,0,5.427-0.494,8.059-1.152V43.272z M68.15,15.641
				c-2.631,0.494-5.426,1.152-8.059,1.152c-2.796,0-5.591-0.495-8.224-1.152V-9.688l7.401-6.745
				c3.292,2.633,6.086,5.429,8.881,8.719V15.641z M87.23,72.713l-7.73-3.617V1.331l7.73-6.908V72.713z M106.638,68.768
				c-5.591,0.656-11.184,2.633-16.447,4.604V46.067c2.795-0.491,5.593-0.985,8.388-0.985c2.633,0,5.428,0.658,8.06,1.15V68.768z
				 M106.638,43.272c-2.632-0.659-5.263-1.15-8.06-1.15c-2.795,0-5.593,0.491-8.388,0.985v-24.67
				c2.795,0.821,5.593,1.315,8.388,1.315c2.797,0,5.428-0.494,8.06-1.152V43.272z M106.638,15.641
				c-2.632,0.494-5.427,1.152-8.06,1.152c-2.795,0-5.593-0.495-8.388-1.318V-8.374l8.059-6.908l8.389,6.744V15.641z M156.901,39.127
				V16.621c2.729,1.283,7.644,3.109,13.568,3.109c4.595,0,9.788-1.11,15.018-4.417c1.017,4.541,1.535,9.289,1.535,14.107
				c0,3.979-0.333,7.762-0.985,11.371C173.882,32.742,161.823,36.814,156.901,39.127z M184.707,12.239
				c-12.558,8.596-24.801,2.738-27.806,1.043v-32.03C171.231-14.184,180.636-2.257,184.707,12.239z M133.677,62
				c-3.016,0.01-6.979,0.328-10.342,1.635c-1.73,0.744-3.209,1.645-4.527,2.693v-78.976c0.006-0.004,0.011-0.01,0.017-0.014
				c0.013-0.012,0.026-0.024,0.04-0.035c3.012-2.524,6.102-4.004,9.584-5.2v-0.062c1.854-0.596,3.588-1.116,5.307-1.545
				c0.029-0.009,0.056-0.018,0.085-0.025c0.012-0.002,0.021-0.002,0.032-0.005c3.085-0.765,6.12-1.222,9.685-1.222
				c3.673,0,7.119,0.411,10.344,1.171v85.734C147.781,64.344,139.046,62.005,133.677,62z"/>
		</g>
	</g>
</g>
<g id="Logotype_réduction" display="none">
	<g display="inline">
		<polygon fill="#231F20" points="3.556,-23.674 -15.374,38.13 -33.528,-23.674 -45.956,-23.674 -64.149,38.268 -83.042,-23.674 
			-97.364,-23.674 -72.932,53.215 -56.924,53.215 -39.657,-5.336 -22.571,53.215 -6.563,53.215 17.878,-23.674 		"/>
		<path fill="#231F20" d="M187.945-34.699l-2.609-1.305c-3.587,3.586-6.845,4.891-11.898,4.891c-4.075,0-13.205-2.607-17.281-3.75
			c-7.987-2.119-15.811-4.564-24.124-4.564c-15.813,0-37.003,10.271-37.003,28.527c0,5.869,3.095,9.455,7.009,13.529l1.957-1.955
			c-3.263-3.26-5.382-6.195-5.382-10.922c0-10.76,11.086-18.258,21.029-18.258c12.226,0,22.822,3.75,34.069,7.988L127.467,0.349
			l1.793,1.629l9.29-7.336v44.991c0,7.01-0.325,9.129-3.096,11.574l0.65,2.119c12.717-6.031,13.695-7.01,13.695-23.801v-43.849
			l7.172-5.706c3.586,0.652,7.01,0.978,10.594,1.142v78.735c-4.562,1.467-8.312,2.445-13.201,2.445
			c-24.779,0-37.983-21.029-37.983-43.852c0-15.486,5.543-27.711,17.443-37.329l-1.957-1.63
			C115.567-8.129,104.32,7.684,104.32,28.875c0,25.104,17.441,43.85,42.87,43.85c17.771,0,32.93-10.922,40.102-27.06l-1.956-1.63
			c-4.074,5.869-7.987,11.736-14.834,14.345v-77.268C180.445-21.008,184.031-25.57,187.945-34.699 M48.898,59.52
			c-4.077,10.107-17.932,32.768-31.625,32.768c-5.704,0-7.988-4.729-7.988-9.293c0-13.367,15.977-25.266,28.528-25.266
			C41.399,57.729,45.31,58.216,48.898,59.52 M94.214,35.885c0,10.27-5.706,18.256-13.856,23.963
			c-8.476-5.543-13.529-8.804-23.309-10.271l7.659-17.932c4.892,1.631,18.91,5.379,18.91,11.249c0,1.793-0.814,3.423-1.629,4.892
			l1.954,0.977c2.446-4.075,4.401-7.661,4.401-12.389c0-9.129-10.92-13.529-18.582-15.648l3.26-7.011
			C84.271,16.812,94.214,23.332,94.214,35.885 M100.409,30.179c0-13.856-8.965-22.495-21.844-26.896
			c6.032-9.456,11.411-14.51,21.354-20.705l-1.631-4.074c-9.453,7.173-16.625,15.16-22.495,23.963L61.125-2.424
			c-8.967-2.935-24.943-7.824-24.943-19.562c0-7.009,6.359-12.224,13.041-12.224c10.596,0,18.096,10.433,23.312,18.419
			c8.148-5.705,15.811-11.898,23.635-18.094l-2.933-3.098l-9.456,7.173c-7.823-6.03-16.463-11.736-26.731-11.736
			c-14.183,0-26.897,11.085-26.897,25.593c0,15.486,13.854,20.538,26.408,24.615l13.854,4.4l-3.259,7.009l-14.998-4.564
			C44.66,13.227,31.62,9.149,28.357,0.999c-1.141-2.935-1.141-6.03-1.141-9.128h-2.771c-1.791,3.913-3.258,7.499-3.258,11.736
			c0,14.671,16.301,19.398,27.711,23.148l13.203,4.237l-7.824,18.258c-1.956-0.327-3.749-0.327-5.706-0.327
			c-9.454,0-20.376,3.262-28.037,8.967S5.699,74.517,5.699,84.135c0,6.357,3.913,11.411,10.76,11.411
			c15.648,0,30.158-22.985,35.211-35.048c6.846,2.609,12.388,7.174,19.398,12.879C85.412,63.432,100.409,48.924,100.409,30.179"/>
		<g>
			<path fill="#231F20" d="M26.003,43.51c-4.441,0-8.055-3.613-8.055-8.055c0-4.442,3.614-8.056,8.055-8.056
				s8.055,3.613,8.055,8.056C34.058,39.896,30.444,43.51,26.003,43.51z M26.003,28.149c-4.028,0-7.305,3.277-7.305,7.306
				c0,4.027,3.277,7.305,7.305,7.305s7.305-3.277,7.305-7.305C33.308,31.427,30.031,28.149,26.003,28.149z"/>
			<g>
				<path d="M29.211,38.949H27.6l-1.592-4.786l-1.565,4.786h-1.639l-1.732-6.574h1.602l0.987,4.489l1.508-4.489h1.713l1.481,4.489
					l0.997-4.489h1.574L29.211,38.949z"/>
			</g>
		</g>
	</g>
</g>
<g id="Logotype_réduction__x2B__Baseline" display="none">
	<g display="inline">
		<polygon fill="#231F20" points="2.855,-23.674 -16.074,38.13 -34.229,-23.674 -46.656,-23.674 -64.85,38.267 -83.743,-23.674 
			-98.064,-23.674 -73.633,53.214 -57.625,53.214 -40.356,-5.337 -23.271,53.214 -7.264,53.214 17.178,-23.674 		"/>
		<path fill="#231F20" d="M256.97,13.785c0,19.022-11.203,27.771-30.135,27.771h-17.504v-53.57h17.584
			c18.871,0,30.055,7.574,30.055,25.688V13.785z M226.916-23.674H195.05v76.888h31.785c27.432,0,45.193-12.953,45.16-39.429v-0.111
			C271.996-11.896,254.277-23.674,226.916-23.674"/>
		<path fill="#231F20" d="M187.244-34.7l-2.607-1.305c-3.588,3.586-6.848,4.891-11.9,4.891c-4.076,0-13.205-2.608-17.279-3.75
			c-7.988-2.119-15.812-4.564-24.125-4.564c-15.812,0-37.004,10.271-37.004,28.528c0,5.868,3.096,9.454,7.01,13.529l1.955-1.956
			c-3.26-3.259-5.379-6.194-5.379-10.922c0-10.759,11.084-18.258,21.027-18.258c12.227,0,22.822,3.75,34.07,7.988L126.767,0.349
			l1.791,1.629l9.293-7.336v44.99c0,7.01-0.326,9.129-3.096,11.574l0.65,2.119c12.715-6.03,13.693-7.009,13.693-23.801v-43.848
			l7.172-5.706c3.586,0.651,7.01,0.978,10.596,1.142v78.734c-4.564,1.467-8.314,2.445-13.203,2.445
			c-24.779,0-37.982-21.029-37.982-43.852c0-15.486,5.543-27.711,17.441-37.328l-1.955-1.631
			c-16.301,12.39-27.549,28.201-27.549,49.393c0,25.104,17.441,43.851,42.871,43.851c17.77,0,32.928-10.922,40.102-27.06
			l-1.955-1.631c-4.076,5.868-7.988,11.736-14.834,14.346v-77.268C179.746-21.008,183.332-25.571,187.244-34.7 M48.197,59.519
			c-4.076,10.107-17.932,32.768-31.625,32.768c-5.705,0-7.987-4.729-7.987-9.293c0-13.367,15.975-25.266,28.526-25.266
			C40.698,57.728,44.61,58.216,48.197,59.519 M93.513,35.884c0,10.269-5.705,18.256-13.855,23.963
			c-8.476-5.543-13.53-8.803-23.31-10.271l7.661-17.931c4.891,1.63,18.911,5.379,18.911,11.249c0,1.793-0.816,3.423-1.631,4.891
			l1.955,0.977c2.445-4.074,4.402-7.66,4.402-12.388c0-9.129-10.922-13.529-18.584-15.649l3.262-7.01
			C83.57,16.812,93.513,23.331,93.513,35.884 M99.708,30.179c0-13.856-8.967-22.496-21.844-26.896
			c6.031-9.455,11.41-14.51,21.354-20.704l-1.629-4.075C88.134-14.323,80.962-6.336,75.093,2.465l-14.669-4.89
			c-8.966-2.934-24.941-7.824-24.941-19.562c0-7.009,6.357-12.224,13.04-12.224c10.596,0,18.095,10.432,23.312,18.418
			c8.15-5.705,15.812-11.898,23.634-18.094l-2.934-3.098l-9.453,7.174c-7.824-6.031-16.464-11.736-26.734-11.736
			c-14.182,0-26.896,11.084-26.896,25.592c0,15.486,13.855,20.539,26.408,24.615l13.854,4.4l-3.259,7.01l-14.997-4.564
			c-7.499-2.281-20.54-6.357-23.801-14.508c-1.142-2.935-1.142-6.031-1.142-9.128h-2.771c-1.792,3.913-3.259,7.499-3.259,11.736
			c0,14.672,16.301,19.397,27.711,23.147l13.204,4.238l-7.825,18.258c-1.957-0.327-3.749-0.327-5.705-0.327
			c-9.454,0-20.376,3.261-28.038,8.966C12.172,63.596,5,74.517,5,84.134c0,6.357,3.912,11.412,10.758,11.412
			c15.649,0,30.158-22.985,35.211-35.049c6.847,2.609,12.389,7.174,19.398,12.879C84.71,63.432,99.708,48.924,99.708,30.179"/>
	</g>
	<g display="inline">
		<path fill="#231F20" d="M26.003,43.51c-4.441,0-8.055-3.613-8.055-8.055c0-4.442,3.614-8.056,8.055-8.056s8.055,3.613,8.055,8.056
			C34.058,39.896,30.444,43.51,26.003,43.51z M26.003,28.149c-4.028,0-7.305,3.277-7.305,7.306c0,4.027,3.277,7.305,7.305,7.305
			s7.305-3.277,7.305-7.305C33.308,31.427,30.031,28.149,26.003,28.149z"/>
		<g>
			<path d="M29.211,38.949H27.6l-1.592-4.786l-1.565,4.786h-1.639l-1.732-6.574h1.602l0.987,4.489l1.508-4.489h1.713l1.481,4.489
				l0.997-4.489h1.574L29.211,38.949z"/>
		</g>
	</g>
</g>
<g id="Logotype_complet" display="none">
	<g display="inline">
		<path fill="#231F20" d="M-42.303,27.774l15.792-37.561l15.791,37.561H-42.303z M-0.024,53.214h14.733l-32.817-77.158h-16.806
			l-32.821,77.158H-53l6.242-14.843h40.494L-0.024,53.214z M-69.542-23.674l-18.93,61.804l-18.154-61.804h-12.428l-18.193,61.94
			l-18.892-61.94h-14.323l24.434,76.888h16.008l17.268-58.551l17.084,58.551h16.008l24.441-76.888H-69.542z"/>
		<path fill="#231F20" d="M332.768,13.785c0,19.022-11.2,27.771-30.135,27.771h-17.502v-53.57h17.584
			c18.87,0,30.053,7.574,30.053,25.688V13.785z M302.715-23.674h-31.866v76.888h31.784c27.433,0,45.193-12.953,45.161-39.429v-0.111
			C347.794-11.896,330.076-23.674,302.715-23.674 M261.433-12.113v-11.562h-66.812v76.889h66.79V41.653h-52.508V18.12h47.517V7.249
			h-47.517v-19.363L261.433-12.113z"/>
		<path fill="#231F20" d="M187.306-34.7l-2.609-1.305c-3.587,3.586-6.845,4.891-11.898,4.891c-4.075,0-13.205-2.608-17.281-3.75
			c-7.987-2.119-15.811-4.564-24.124-4.564c-15.813,0-37.003,10.271-37.003,28.528c0,5.866,3.095,9.454,7.009,13.529l1.957-1.956
			c-3.263-3.259-5.382-6.194-5.382-10.922c0-10.759,11.086-18.258,21.029-18.258c12.226,0,22.822,3.75,34.069,7.988L126.829,0.347
			l1.793,1.631l9.29-7.336v44.99c0,7.01-0.325,9.129-3.096,11.574l0.65,2.119c12.717-6.03,13.695-7.009,13.695-23.801v-43.848
			l7.172-5.707c3.586,0.652,7.01,0.979,10.594,1.143v78.733c-4.562,1.468-8.312,2.446-13.201,2.446
			c-24.779,0-37.983-21.029-37.983-43.85c0-15.486,5.543-27.713,17.443-37.33l-1.957-1.631
			c-16.301,12.39-27.548,28.201-27.548,49.393c0,25.104,17.441,43.851,42.87,43.851c17.771,0,32.93-10.922,40.102-27.06
			l-1.956-1.631c-4.074,5.868-7.987,11.736-14.834,14.346v-77.268C179.806-21.008,183.392-25.571,187.306-34.7 M48.259,59.519
			c-4.077,10.107-17.932,32.768-31.625,32.768c-5.704,0-7.988-4.729-7.988-9.293c0-13.367,15.977-25.266,28.528-25.266
			C40.76,57.728,44.671,58.216,48.259,59.519 M93.576,35.884c0,10.269-5.706,18.256-13.856,23.962
			c-8.476-5.542-13.529-8.802-23.309-10.271l7.659-17.931c4.892,1.63,18.91,5.379,18.91,11.249c0,1.793-0.814,3.423-1.629,4.891
			l1.954,0.977c2.446-4.074,4.401-7.66,4.401-12.388c0-9.129-10.92-13.53-18.582-15.649l3.26-7.01
			C83.632,16.812,93.576,23.331,93.576,35.884 M99.77,30.179c0-13.856-8.965-22.496-21.844-26.898
			c6.032-9.453,11.411-14.508,21.354-20.702l-1.631-4.075C88.197-14.323,81.025-6.336,75.155,2.465l-14.669-4.89
			c-8.967-2.934-24.943-7.824-24.943-19.562c0-7.009,6.359-12.224,13.041-12.224c10.596,0,18.096,10.431,23.312,18.418
			c8.148-5.705,15.811-11.898,23.635-18.094l-2.933-3.098l-9.456,7.174c-7.823-6.033-16.463-11.736-26.731-11.736
			c-14.183,0-26.897,11.084-26.897,25.592c0,15.484,13.854,20.539,26.408,24.615l13.854,4.4l-3.259,7.01l-14.998-4.564
			c-7.498-2.281-20.538-6.357-23.801-14.508c-1.141-2.935-1.141-6.033-1.141-9.128h-2.771c-1.791,3.911-3.258,7.499-3.258,11.736
			c0,14.671,16.301,19.397,27.711,23.147l13.203,4.238l-7.824,18.258c-1.956-0.327-3.749-0.327-5.706-0.327
			c-9.454,0-20.376,3.261-28.037,8.966S5.06,74.517,5.06,84.134c0,6.357,3.913,11.412,10.76,11.412
			c15.648,0,30.158-22.985,35.211-35.049c6.846,2.609,12.388,7.174,19.398,12.879C84.773,63.432,99.77,48.924,99.77,30.179"/>
		<g>
			<path fill="#231F20" d="M26.003,43.51c-4.441,0-8.055-3.613-8.055-8.055c0-4.442,3.614-8.056,8.055-8.056
				s8.055,3.613,8.055,8.056C34.058,39.896,30.444,43.51,26.003,43.51z M26.003,28.149c-4.028,0-7.305,3.277-7.305,7.306
				c0,4.027,3.277,7.305,7.305,7.305s7.305-3.277,7.305-7.305C33.308,31.427,30.031,28.149,26.003,28.149z"/>
			<g>
				<path d="M29.211,38.949H27.6l-1.592-4.786l-1.565,4.786h-1.639l-1.732-6.574h1.602l0.987,4.489l1.508-4.489h1.713l1.481,4.489
					l0.997-4.489h1.574L29.211,38.949z"/>
			</g>
		</g>
	</g>
</g>
<g id="Logotype_complet__x2B__Baseline">
	<g>
		<g>
			<path fill="#231F20" d="M63.084,26.194l3.966-9.431l3.965,9.431H63.084z M73.701,32.584H77.4l-8.24-19.375h-4.22l-8.241,19.375
				h3.7l1.568-3.728h10.167L73.701,32.584z M56.245,13.277l-4.754,15.519l-4.559-15.519h-3.12L39.244,28.83L34.5,13.277h-3.596
				l6.135,19.307h4.02l4.335-14.704l4.29,14.704h4.02l6.137-19.307H56.245z"/>
			<path fill="#231F20" d="M157.264,22.683c0,4.777-2.812,6.972-7.566,6.972h-4.396v-13.45h4.416c4.738,0,7.547,1.901,7.547,6.45
				V22.683z M149.717,13.277h-8v19.307h7.98c6.889,0,11.348-3.254,11.34-9.901v-0.028C161.038,16.234,156.588,13.277,149.717,13.277
				 M139.352,16.179v-2.903h-16.777v19.308h16.771V29.68h-13.184v-5.909h11.93v-2.73h-11.93v-4.862L139.352,16.179z"/>
			<path fill="#231F20" d="M31.84,27.302v-0.005c0-0.722-0.712-1.104-1.773-1.104c-0.947,0-1.735,0.37-1.775,1.208l-0.001,0.021
				h0.658l0.001-0.021c0.029-0.445,0.492-0.657,1.082-0.657c0.697,0,1.081,0.194,1.081,0.57v0.005c0,1.092-2.856,0.565-2.856,2.605
				v0.094h3.571v-0.555h-2.78C29.59,28.372,31.84,28.752,31.84,27.302z M27.025,26.236c-0.222,0.341-0.518,0.497-1.152,0.497v0.535
				c0.441,0,0.78-0.064,1.041-0.18v2.929h0.702v-3.782H27.025z M23.463,29.498c-0.772,0-1.175-0.508-1.175-1.399v-0.005
				c0-0.849,0.403-1.335,1.175-1.335c0.777,0,1.182,0.486,1.182,1.335v0.005C24.646,28.99,24.241,29.498,23.463,29.498
				 M23.463,30.055c1.247,0,1.921-0.715,1.921-1.956v-0.005c0-1.2-0.674-1.896-1.921-1.896c-1.242,0.001-1.914,0.696-1.914,1.896
				v0.005C21.55,29.34,22.221,30.055,23.463,30.055 M19.097,30.016h0.745v-0.689h-0.745V30.016z M18.448,28.956V28.95
				c0-1.59-2.87-0.666-2.87-1.678v-0.006c0-0.342,0.386-0.539,1.066-0.539c0.666,0,1.107,0.197,1.107,0.582v0.01h0.659v-0.025
				c0-0.684-0.649-1.1-1.785-1.1c-1.067,0-1.758,0.385-1.758,1.073v0.006c0,1.622,2.868,0.686,2.868,1.688v0.006
				c0,0.362-0.413,0.56-1.091,0.56c-0.747,0-1.179-0.232-1.179-0.675v-0.01h-0.658v0.021c0,0.709,0.592,1.199,1.836,1.199
				C17.751,30.061,18.448,29.641,18.448,28.956z"/>
			<path fill="#231F20" d="M180.526,28.989v-0.006c0-1.612-3.023-0.604-3.023-1.717V27.26c0-0.385,0.443-0.609,1.23-0.609
				c0.775,0,1.281,0.219,1.281,0.639v0.006h0.486v-0.027c0-0.654-0.648-1.064-1.777-1.064c-1.082,0-1.752,0.396-1.752,1.052v0.004
				c0,1.645,3.025,0.612,3.025,1.723v0.006c0,0.403-0.48,0.626-1.262,0.626c-0.85,0-1.342-0.256-1.342-0.728v-0.006h-0.486v0.02
				c0,0.687,0.605,1.161,1.828,1.161C179.874,30.062,180.526,29.617,180.526,28.989 M176.124,26.243h-0.514v3.78h0.514V26.243z
				 M171.846,28.156v-1.455h1.279c0.645,0,1.123,0.199,1.123,0.69v0.007c0,0.531-0.479,0.757-1.123,0.757H171.846z M174.84,30.023
				l-0.926-1.524c0.553-0.176,0.869-0.56,0.869-1.1v-0.007c0-0.728-0.623-1.149-1.658-1.149h-1.793v3.78h0.514v-1.414h1.279
				c0.092,0,0.182-0.005,0.268-0.012l0.867,1.426H174.84z M167.825,28.783l0.92-2.06l0.92,2.06H167.825z M170.219,30.023h0.529
				l-1.703-3.797h-0.604l-1.701,3.797h0.527l0.35-0.783h2.252L170.219,30.023z M166.346,27.465c0,0.574-0.48,0.82-1.127,0.82h-1.209
				v-1.584h1.209c0.646,0,1.127,0.224,1.127,0.758V27.465z M165.219,26.243h-1.721v3.78h0.512v-1.285h1.209
				c1.037,0,1.66-0.47,1.66-1.273v-0.007C166.879,26.687,166.256,26.243,165.219,26.243"/>
			<path fill="#231F20" d="M116.358,33.881V14.479c2.498-0.532,3.398-1.679,4.381-3.971l-0.654-0.328
				c-0.9,0.9-1.719,1.229-2.988,1.229c-1.023,0-3.316-0.655-4.34-0.941c-2.006-0.532-3.969-1.146-6.057-1.146
				c-3.191,0-7.254,1.667-8.727,4.703c-2.247,1.75-3.975,3.687-5.396,5.816l-3.683-1.228c-2.251-0.737-6.263-1.964-6.263-4.912
				c0-1.76,1.596-3.069,3.274-3.069c2.661,0,4.544,2.619,5.854,4.625c2.046-1.433,3.971-2.988,5.935-4.544l-0.736-0.777
				l-2.374,1.801c-1.965-1.515-4.134-2.947-6.713-2.947c-3.561,0-6.753,2.784-6.753,6.426c0,3.888,3.479,5.157,6.631,6.18
				l3.479,1.105l-0.818,1.76l-3.765-1.146c-1.884-0.572-5.158-1.596-5.977-3.643c-0.287-0.737-0.287-1.515-0.287-2.292h-0.696
				c-0.45,0.982-0.818,1.883-0.818,2.947c0,3.684,4.093,4.87,6.958,5.812l3.316,1.064l-1.965,4.584
				c-0.491-0.082-0.941-0.082-1.432-0.082c-2.374,0-5.117,0.818-7.041,2.25c-1.924,1.434-3.725,4.176-3.725,6.59
				c0,1.598,0.982,2.865,2.701,2.865c3.93,0,7.573-5.771,8.842-8.799c1.719,0.654,3.11,1.801,4.871,3.232
				c3.602-2.496,7.367-6.139,7.367-10.846c0-3.479-2.251-5.648-5.484-6.754c1.26-1.977,2.411-3.188,4.201-4.436
				c-0.043,0.283-0.067,0.574-0.067,0.875c0,1.473,0.777,2.374,1.759,3.398l0.492-0.492c-0.818-0.818-1.351-1.555-1.351-2.742
				c0-2.701,2.782-4.584,5.28-4.584c3.07,0,5.73,0.941,8.555,2.006l-6.59,5.239l0.449,0.409l2.334-1.842v11.297
				c0,1.76-0.082,2.293-0.777,2.906l0.164,0.531c3.191-1.514,3.438-1.758,3.438-5.975v-11.01l1.801-1.433
				c0.9,0.164,1.76,0.246,2.66,0.287v19.77c-1.146,0.369-2.088,0.613-3.314,0.613c-6.223,0-9.537-5.279-9.537-11.009
				c0-3.889,1.391-6.959,4.379-9.374l-0.49-0.41c-4.094,3.111-6.918,7.081-6.918,12.402c0,6.302,4.379,11.011,10.764,11.011
				c4.463,0,8.27-2.744,10.07-6.795l-0.49-0.41C119.061,31.752,118.079,33.225,116.358,33.881z M77.883,42.393
				c-1.433,0-2.006-1.186-2.006-2.332c0-3.357,4.012-6.346,7.163-6.346c0.901,0,1.883,0.123,2.784,0.451
				C84.801,36.703,81.322,42.393,77.883,42.393z M97.204,28.231c0,2.577-1.433,4.585-3.479,6.017
				c-2.128-1.391-3.397-2.209-5.854-2.578l1.924-4.503c1.228,0.41,4.748,1.351,4.748,2.824c0,0.451-0.205,0.861-0.41,1.229
				l0.491,0.246c0.614-1.023,1.105-1.924,1.105-3.11c0-2.292-2.743-3.398-4.667-3.93l0.819-1.76
				C94.707,23.442,97.204,25.08,97.204,28.231z"/>
		</g>
		<g>
			<path fill="#231F20" d="M80.174,30.145c-1.115,0-2.022-0.906-2.022-2.021c0-1.116,0.907-2.023,2.022-2.023
				s2.022,0.908,2.022,2.023C82.197,29.238,81.29,30.145,80.174,30.145z M80.174,26.289c-1.011,0-1.834,0.823-1.834,1.835
				c0,1.011,0.823,1.833,1.834,1.833c1.012,0,1.834-0.822,1.834-1.833C82.009,27.112,81.186,26.289,80.174,26.289z"/>
			<g>
				<path d="M80.98,29.002h-0.404l-0.4-1.203l-0.393,1.203h-0.411l-0.435-1.652h0.402l0.248,1.127l0.379-1.127h0.43l0.372,1.127
					l0.25-1.127h0.395L80.98,29.002z"/>
			</g>
		</g>
	</g>
</g>
</svg>
